<?xml version="1.0" encoding="utf-8"?>
<!-- Generator: Adobe Illustrator 22.1.0, SVG Export Plug-In . SVG Version: 6.00 Build 0)  -->
<svg version="1.1" id="Layer_1" xmlns="http://www.w3.org/2000/svg" xmlns:xlink="http://www.w3.org/1999/xlink" x="0px" y="0px"
	 viewBox="0 0 24 24" style="enable-background:new 0 0 24 24;" xml:space="preserve">
<style type="text/css">
	.st0{fill:#575757;}
</style>
<g>
	<path class="st0" d="M7.9,3.4l5.9,3.4c0.5,0.3,1.1,0.1,1.3-0.4c0.3-0.5,0.1-1.1-0.4-1.3L8.8,1.7C8.4,1.4,7.8,1.6,7.5,2
		C7.2,2.5,7.4,3.1,7.9,3.4L7.9,3.4z M13.3,7.6L7.4,4.2L4,10.1l5.9,3.4L13.3,7.6z M2.5,12.6L8.4,16c0.5,0.3,1.1,0.1,1.3-0.4
		c0.3-0.5,0.1-1.1-0.4-1.3l-5.9-3.4c-0.5-0.3-1.1-0.1-1.3,0.4C1.9,11.7,2.1,12.3,2.5,12.6L2.5,12.6z M22.8,15.3L12.1,9.7l-1,1.7
		l10.3,6.5c0.7,0.4,1.6,0.2,2-0.5C23.7,16.6,23.5,15.7,22.8,15.3L22.8,15.3z M12.1,20.2c0-0.5-0.4-1-1-1H2.4c-0.5,0-1,0.4-1,1
		s0,1,0,1l-1,0l0,1h12.6l0-0.9l-1,0C12.2,21.2,12.1,20.8,12.1,20.2L12.1,20.2z"/>
</g>
</svg>
