<?xml version="1.0" encoding="utf-8"?>
<!-- Generator: Adobe Illustrator 22.1.0, SVG Export Plug-In . SVG Version: 6.00 Build 0)  -->
<svg version="1.1" id="Layer_1" xmlns="http://www.w3.org/2000/svg" xmlns:xlink="http://www.w3.org/1999/xlink" x="0px" y="0px"
	 viewBox="0 0 24 24" style="enable-background:new 0 0 24 24;" xml:space="preserve">
<style type="text/css">
	.st0{fill:#575757;}
</style>
<g>
	<g>
		<path class="st0" d="M12,4C4.1,4,0,12,0,12s3.1,8,12,8c8.1,0,12-8,12-8S20.1,4,12,4z M12,17c-2.9,0-5-2.2-5-5c0-2.8,2.1-5,5-5
			s5,2.2,5,5C17,14.8,14.9,17,12,17z M12,9c-1.7,0-3,1.4-3,3c0,1.6,1.3,3,3,3s3-1.4,3-3C15,10.4,13.7,9,12,9z"/>
	</g>
</g>
</svg>
